<svg id="Layer_1" data-name="Layer 1" xmlns="http://www.w3.org/2000/svg" viewBox="0 0 206.89 307.69"><defs><style>.cls-1{fill:#cac9f7;}.cls-1,.cls-2,.cls-4,.cls-5{stroke:#707070;stroke-linejoin:round;}.cls-2{fill:#f2d69c;}.cls-3{fill:#707070;}.cls-4{fill:#57f2cb;}.cls-5{fill:none;}</style></defs><title>avatar1</title><path class="cls-1" d="M112.83,246.88h-80a100.35,100.35,0,0,1-4.34-29.25V112.79A100.93,100.93,0,0,1,200.94,41.42c1.15,1.15,2.28,2.34,3.38,3.55a100.62,100.62,0,0,1,26.3,67.82V217.63a100.35,100.35,0,0,1-4.34,29.25h-80" transform="translate(-26.12 -11.24)"/><polyline class="cls-2" points="86.71 236.92 86.71 208.03 120.19 208.03 120.19 236.92"/><path class="cls-2" d="M205.16,109.5v46a75.59,75.59,0,0,1-151.18,0v-47a162,162,0,0,0,43-8A163,163,0,0,0,148.8,72.11S165.59,103,205.16,109.5Z" transform="translate(-26.12 -11.24)"/><path class="cls-3" d="M154.1,184.75c-3.12,11.78-12.93,20.37-24.53,20.37s-21.41-8.59-24.53-20.37Z" transform="translate(-26.12 -11.24)"/><circle class="cls-3" cx="68.98" cy="133.82" r="9.47"/><circle class="cls-3" cx="137.45" cy="130.89" r="9.47"/><path class="cls-4" d="M232.51,318.43H26.62a109.65,109.65,0,0,1,179.72-40.09c.28.26.56.54.84.82A110.34,110.34,0,0,1,232.51,318.43Z" transform="translate(-26.12 -11.24)"/><path class="cls-5" d="M213.29,110.47q-4.22-.31-8.13-1" transform="translate(-26.12 -11.24)"/><path class="cls-5" d="M45.85,108.74c2.49,0,5.21,0,8.13-.2" transform="translate(-26.12 -11.24)"/></svg>