<?xml version="1.0" encoding="utf-8"?>
<!-- Generator: Adobe Illustrator 23.0.1, SVG Export Plug-In . SVG Version: 6.00 Build 0)  -->
<svg version="1.1" id="Layer_1" xmlns="http://www.w3.org/2000/svg" xmlns:xlink="http://www.w3.org/1999/xlink" x="0px" y="0px"
	 viewBox="0 0 1862.7 366.4" style="enable-background:new 0 0 1862.7 366.4;" xml:space="preserve">
<style type="text/css">
	.st0{fill:#4C4C64;}
	.st1{fill:#E1E3F7;}
	.st2{fill:#CAFAEF;}
	.st3{fill:#C0C4EA;}
	.st4{fill:#3F3FA5;}
	.st5{font-family:'Tahoma';}
	.st6{font-size:285.83px;}
	.st7{fill:#0AE3AD;}
	.st8{fill:#9DF4DD;}
	.st9{fill:#7060ED;}
	.st10{fill:#7378A5;}
</style>
<title>logo-cvr</title>
<path class="st0" d="M54.6,24.4h21.2c23.1,0,41.8,18.7,41.8,41.8v21.2c0,23.1-18.7,41.8-41.8,41.8H54.6c-23.1,0-41.8-18.7-41.8-41.8
	V66.2C12.8,43.2,31.5,24.4,54.6,24.4z"/>
<path class="st1" d="M281.9,20.1h21.2c23.1,0,41.8,18.7,41.8,41.8v21.2c0,23.1-18.7,41.8-41.8,41.8h-21.2
	c-23.1,0-41.8-18.7-41.8-41.8V61.9C240.1,38.8,258.8,20.1,281.9,20.1z"/>
<path class="st2" d="M398.1,262.1h20.4c22.3,0,40.3,18.1,40.3,40.3v20.4c0,22.3-18.1,40.3-40.3,40.3h-20.4
	c-22.3,0-40.3-18.1-40.3-40.3v-20.4C357.8,280.2,375.9,262.1,398.1,262.1z"/>
<path class="st3" d="M167.6,263.1h20.1c21.9,0,39.6,17.7,39.6,39.6v20.1c0,21.9-17.7,39.6-39.6,39.6h-20.1
	c-21.9,0-39.6-17.7-39.6-39.6v-20.1C128,280.8,145.7,263.1,167.6,263.1z"/>
<text transform="matrix(1.15 0 0 1 606.2198 280.8562)" class="st4 st5 st6">covrHUB</text>
<path class="st7" d="M408.3,242.8h-0.5c-27.8,0-50.3-22.5-50.3-50.3V74.7c0-27.8,22.5-50.3,50.3-50.3h0.5
	c27.8,0,50.3,22.5,50.3,50.3v117.7C458.6,220.2,436.1,242.8,408.3,242.8z"/>
<path class="st8" d="M292.9,362.3h-0.8c-27.8,0-50.3-22.5-50.3-50.3V202.4c0-27.8,22.5-50.3,50.3-50.3h0.8
	c27.8,0,50.3,22.5,50.3,50.3V312C343.2,339.8,320.7,362.3,292.9,362.3z"/>
<path class="st9" d="M177.6,238.4L177.6,238.4c-27.6,0-49.9-22.4-49.9-49.9V70c0-27.6,22.4-49.9,49.9-49.9h0
	c27.6,0,49.9,22.4,49.9,49.9v118.5C227.5,216,205.2,238.4,177.6,238.4z"/>
<path class="st10" d="M65.2,366.4L65.2,366.4c-27.6,0-49.9-22.4-49.9-49.9V198c0-27.6,22.4-49.9,49.9-49.9h0
	c27.6,0,49.9,22.4,49.9,49.9v118.5C115.1,344,92.7,366.4,65.2,366.4z"/>
</svg>
