<svg id="Layer_1" data-name="Layer 1" xmlns="http://www.w3.org/2000/svg" viewBox="0 0 319.77 194.43"><defs><style>.cls-1{fill:#57f2cb;}.cls-2,.cls-5{fill:#f7f7f7;}.cls-2,.cls-3{stroke:#f7f7f7;stroke-linecap:round;stroke-linejoin:round;stroke-width:8px;}.cls-3,.cls-4{fill:none;}.cls-4{stroke:#000;stroke-miterlimit:10;}.cls-5{font-size:116.42px;font-family:Kefa-Regular, Kefa;}</style></defs><title>money-icon</title><ellipse class="cls-1" cx="159.89" cy="97.22" rx="52.74" ry="65.05"/><path class="cls-2" d="M65.44,205.18a23.33,23.33,0,0,1-4.17,13.35H47.13A19.12,19.12,0,0,1,28,199.42v-13.1a23.46,23.46,0,0,1,37.42,18.86Z" transform="translate(-24.02 -28.1)"/><path class="cls-2" d="M65.44,46.25A23.47,23.47,0,0,1,28,65.12V51.21A19.12,19.12,0,0,1,47.13,32.1H60.69A23.38,23.38,0,0,1,65.44,46.25Z" transform="translate(-24.02 -28.1)"/><path class="cls-2" d="M339.79,51.21v14a23.46,23.46,0,0,1-32.6-33.07h13.49A19.11,19.11,0,0,1,339.79,51.21Z" transform="translate(-24.02 -28.1)"/><path class="cls-2" d="M339.79,186.27v13.15a19.11,19.11,0,0,1-19.11,19.11H306.62a23.45,23.45,0,0,1,33.17-32.26Z" transform="translate(-24.02 -28.1)"/><path class="cls-3" d="M339.79,65.17v121.1a23.45,23.45,0,0,0-33.17,32.26H61.27A23.46,23.46,0,0,0,28,186.32V65.12a23.47,23.47,0,0,0,32.67-33h246.5a23.46,23.46,0,0,0,32.6,33.07Z" transform="translate(-24.02 -28.1)"/><path class="cls-4" d="M193.77-31.74" transform="translate(-24.02 -28.1)"/><text class="cls-5" transform="translate(116.83 134.59) scale(1.19 1)">1</text></svg>