<svg id="Layer_1" data-name="Layer 1" xmlns="http://www.w3.org/2000/svg" viewBox="0 0 311.04 331.97"><defs><style>.cls-1{font-size:32.11px;font-family:MyriadPro-Regular, Myriad Pro;}.cls-1,.cls-7{fill:#f7f7f7;}.cls-2{letter-spacing:-0.01em;}.cls-3{letter-spacing:0em;}.cls-4{letter-spacing:0em;}.cls-5{letter-spacing:-0.01em;}.cls-6{fill:#ededed;}.cls-8,.cls-9{fill:none;}.cls-8{stroke:#000;stroke-miterlimit:10;}.cls-9{stroke:#f7f7f7;stroke-linecap:round;stroke-linejoin:round;stroke-width:8px;}.cls-10{fill:#57f2cb;}.cls-11{fill:#fff;}</style></defs><title>policy-icon</title><text class="cls-1" transform="translate(33.62 246.64) scale(0.99 1)">Si<tspan class="cls-2" x="23.34" y="0">g</tspan><tspan class="cls-3" x="41.1" y="0">n</tspan><tspan class="cls-4" x="58.92" y="0">a</tspan><tspan x="74.27" y="0">tu</tspan><tspan class="cls-5" x="102.59" y="0">r</tspan><tspan x="112.77" y="0">e</tspan></text><rect class="cls-6" x="37.94" y="254.67" width="121.95" height="40.03" rx="6.63"/><rect class="cls-7" x="72.37" width="124.2" height="40.27" rx="15.41"/><path class="cls-8" d="M220.76,50.19" transform="translate(-15.16 -9.92)"/><path class="cls-8" d="M86.35,50.19" transform="translate(-15.16 -9.92)"/><path class="cls-9" d="M214.9,27.47H257c12.77,0,23.12,10.66,23.12,23.81v262.8c0,13.15-10.35,23.81-23.12,23.81H42.28c-12.77,0-23.12-10.66-23.12-23.81V51.28c0-13.15,10.35-23.81,23.12-23.81H84.4" transform="translate(-15.16 -9.92)"/><path class="cls-10" d="M326.2,179.58c-.44,29.32-2.92,68.63-12.3,86.2C298,295.57,255.51,309,255.51,309s-42.47-13.4-58.39-43.19c-9.4-17.57-11.87-56.9-12.31-86.2h.69c7.62,4.79,18.81,7.79,31.28,7.79s23.65-3,31.28-7.79a26.66,26.66,0,0,0,7-6.07,26.45,26.45,0,0,0,7,6.07c7.63,4.79,18.81,7.79,31.27,7.79s23.66-3,31.29-7.79Z" transform="translate(-15.16 -9.92)"/><path class="cls-11" d="M291.26,231.62v16a6.66,6.66,0,0,1-6.53,6.77H269.51L269.43,269a6.64,6.64,0,0,1-6.57,6.74l-14.9-.07a6.68,6.68,0,0,1-6.51-6.81l.07-14.52H226.28a6.65,6.65,0,0,1-6.54-6.77v-16a6.65,6.65,0,0,1,6.54-6.77h15.39l.08-16.48a6.64,6.64,0,0,1,6.57-6.73l14.91.07a6.67,6.67,0,0,1,6.5,6.81l-.08,16.33h15.08A6.66,6.66,0,0,1,291.26,231.62Z" transform="translate(-15.16 -9.92)"/><rect class="cls-7" x="36.21" y="128.63" width="196.52" height="10.72" rx="4.49"/><rect class="cls-7" x="37.94" y="165.89" width="115.32" height="10.72" rx="4.49"/><rect class="cls-7" x="36.21" y="94.59" width="196.52" height="10.72" rx="4.49"/></svg>