<svg id="Layer_1" data-name="Layer 1" xmlns="http://www.w3.org/2000/svg" viewBox="0 0 211.25 314.8"><defs><style>.cls-1{fill:#4c3d1f;}.cls-1,.cls-2{stroke:#424241;}.cls-1,.cls-2,.cls-3,.cls-4{stroke-linejoin:round;}.cls-2{fill:#8e743c;}.cls-3{fill:#a5f9d5;}.cls-3,.cls-4{stroke:#707070;}.cls-4{fill:#8a90f9;}.cls-5{fill:#3f3f3f;}</style></defs><title>avatar3</title><path class="cls-1" d="M201.8,176.92q-.86,2.66-1.92,5.21a75.12,75.12,0,0,1-12,19.69,15.15,15.15,0,1,1,13.88-24.9Z" transform="translate(-22.57 -1.82)"/><path class="cls-1" d="M205.53,133.41v20.22a74.26,74.26,0,0,1-3.73,23.29q-.86,2.66-1.92,5.21a24,24,0,0,1-3.19.21,25.26,25.26,0,0,1-8-49.2,24.87,24.87,0,0,1,8-1.32A25.15,25.15,0,0,1,205.53,133.41Z" transform="translate(-22.57 -1.82)"/><path class="cls-1" d="M86.52,167.36a25.25,25.25,0,0,1-20.59,24.82,74.49,74.49,0,0,1-10.71-38.55V142.82a24.48,24.48,0,0,1,5.52-.72h.52A25.27,25.27,0,0,1,86.52,167.36Z" transform="translate(-22.57 -1.82)"/><path class="cls-1" d="M205.53,114v25.66a25.25,25.25,0,0,1-23.41-34.74,25.18,25.18,0,0,0,19.62,9.36A26.31,26.31,0,0,0,205.53,114Z" transform="translate(-22.57 -1.82)"/><path class="cls-1" d="M73.56,105.89a25.26,25.26,0,0,1-16.09,22.27,21.19,21.19,0,0,1-2.25.75V118.72a15.16,15.16,0,0,0,11-13.28,35.38,35.38,0,0,0,5.86.48C72.6,105.92,73.08,105.91,73.56,105.89Z" transform="translate(-22.57 -1.82)"/><polyline class="cls-2" points="87.62 251.51 87.62 222.62 121.1 222.62 121.1 251.51"/><path class="cls-3" d="M233.32,316.12H27.43A109.65,109.65,0,0,1,207.15,276c.28.26.56.54.84.82A110.34,110.34,0,0,1,233.32,316.12Z" transform="translate(-22.57 -1.82)"/><path class="cls-4" d="M213.57,138.29a25.25,25.25,0,0,1-9.17,42.84,15.15,15.15,0,0,1-14,20.89,15.28,15.28,0,0,1-2.45-.2,75.12,75.12,0,0,0,12-19.69q1.06-2.55,1.92-5.21a74.26,74.26,0,0,0,3.73-23.29V114a26.31,26.31,0,0,1-3.79.28,25.18,25.18,0,0,1-19.62-9.36,24.63,24.63,0,0,1-3.88-6.66A25.24,25.24,0,0,1,142,94.26a36.21,36.21,0,0,1-35.49-13.43,36.12,36.12,0,0,1-32.95,25.06c-.48,0-1,0-1.45,0a35.38,35.38,0,0,1-5.86-.48,15.16,15.16,0,0,1-11,13.28v34.91a74.49,74.49,0,0,0,10.71,38.55,24.73,24.73,0,0,1-4.67.44,25.26,25.26,0,0,1-20.38-40.2,15.16,15.16,0,0,1-4.72-25.68A25.25,25.25,0,0,1,38,81.58,36.13,36.13,0,0,1,67.54,34l.75-.09a14.59,14.59,0,0,1,.32-1.49A25.24,25.24,0,0,1,86.7,14a25.2,25.2,0,0,1,20.53,3.46A25.26,25.26,0,0,1,150,11.7,25.33,25.33,0,0,1,166.11,9h0a25.25,25.25,0,0,1,19,14.69,4.43,4.43,0,0,1,.2.45l.17-.06a15.17,15.17,0,0,1,20.06,14.35,15,15,0,0,1-1.16,5.82A15.16,15.16,0,0,1,216.9,59.19a15,15,0,0,1-2.31,8A25.21,25.21,0,0,1,227,89a25,25,0,0,1-1.85,9.49,25.24,25.24,0,0,1-11.58,39.84Z" transform="translate(-22.57 -1.82)"/><path class="cls-2" d="M68.29,33.88l-.75.09c.35-.54.7-1.06,1.07-1.58A14.59,14.59,0,0,0,68.29,33.88Z" transform="translate(-22.57 -1.82)"/><path class="cls-2" d="M185.3,24.15a4.43,4.43,0,0,0-.2-.45l.37.39Z" transform="translate(-22.57 -1.82)"/><path class="cls-2" d="M205.53,114v39.68a74.26,74.26,0,0,1-3.73,23.29q-.86,2.66-1.92,5.21a75.16,75.16,0,0,1-144.66-28.5V118.72a15.16,15.16,0,0,0,11-13.28,35.38,35.38,0,0,0,5.86.48c.49,0,1,0,1.45,0a36.12,36.12,0,0,0,33-25.06A36.21,36.21,0,0,0,142,94.26a25.24,25.24,0,0,0,36.24,3.95,24.63,24.63,0,0,0,3.88,6.66,25.18,25.18,0,0,0,19.62,9.36A26.31,26.31,0,0,0,205.53,114Z" transform="translate(-22.57 -1.82)"/><circle class="cls-5" cx="80.04" cy="138" r="9.47"/><circle class="cls-5" cx="139.44" cy="138" r="9.47"/><path class="cls-5" d="M154.91,184c-3.12,11.78-12.93,20.37-24.53,20.37S109,195.75,105.85,184Z" transform="translate(-22.57 -1.82)"/></svg>