<svg id="Layer_1" data-name="Layer 1" xmlns="http://www.w3.org/2000/svg" viewBox="0 0 206.89 307.69"><defs><style>.cls-1{fill:#f4ead7;}.cls-1,.cls-2,.cls-4,.cls-5{stroke:#707070;}.cls-1,.cls-2,.cls-5{stroke-linejoin:round;}.cls-2{fill:#a9bfe0;}.cls-3{fill:#707070;}.cls-4{fill:none;stroke-linecap:round;stroke-miterlimit:10;stroke-width:4px;}.cls-5{fill:#defcf5;}</style></defs><title>avatar2</title><polyline class="cls-1" points="86.03 236.32 86.03 207.43 119.51 207.43 119.51 236.32"/><path class="cls-2" d="M231.67,318.43H25.78A109.65,109.65,0,0,1,205.5,278.34c.28.26.56.54.84.82A110.34,110.34,0,0,1,231.67,318.43Z" transform="translate(-25.28 -11.25)"/><path class="cls-1" d="M202.29,100.67v54.85a75.59,75.59,0,1,1-151.18,0v-45s45.37-6.32,53.49-32.84c0,0,19.49,28.42,40.34,24.63,0,0-12-13.27-7.58-18.32,0,0,29,19,49.26,15.79A97.65,97.65,0,0,1,202.29,100.67Z" transform="translate(-25.28 -11.25)"/><circle class="cls-3" cx="70.76" cy="130.23" r="9.47"/><circle class="cls-3" cx="139.33" cy="130.44" r="9.47"/><path class="cls-4" d="M100.8,189.18s25.9,25.9,51.79,0" transform="translate(-25.28 -11.25)"/><path class="cls-5" d="M202.29,87.34v13.33a97.65,97.65,0,0,0-15.67-.93C166.41,103,137.36,84,137.36,84c-4.42,5,7.58,18.32,7.58,18.32-20.85,3.79-40.34-24.63-40.34-24.63-8.12,26.52-53.49,32.84-53.49,32.84V87.34a75.59,75.59,0,0,1,151.18,0Z" transform="translate(-25.28 -11.25)"/></svg>